<?xml version="1.0" encoding="UTF-8"?>
<svg id="svg2" xmlns="http://www.w3.org/2000/svg" viewBox="0 0 128 128">
  <defs>
    <style>
      .cls-1 {
        fill: #3c56a0;
      }
    </style>
  </defs>
  <polygon class="cls-1" points="105.27 79.88 97.1 88.05 87.29 88.05 100.37 74.97 105.27 79.88"/>
  <polygon class="cls-1" points="78.79 53.39 78.03 54.15 73.88 58.3 58.74 43.16 52.3 49.61 67.43 64.75 62.53 69.65 47.39 54.52 13.85 88.05 4.04 88.05 58.74 33.35 78.79 53.39"/>
  <path class="cls-1" d="M95.53,67.22l-1.76-1.76-5.62-5.62-.19-.19-3.78-3.78-6.46-6.46-.27-.27-.84-.84-3.78-3.78-.46-.46-.27-.27-10.43-10.43h7.7l.08,.08,2.92,3.06,.46,.46,1.49,1.49,2.3,2.3,1.11,1.11,1.95,1.95,.73,.73,2.67,2.67,1.11,1.11,.84,.84,2.95,2.95,.46,.46,1.95,1.95,1.38,1.38,2.03,2.03,5.54,5.54,1.76,1.76,2.03,2.03,1.38,1.38,6.19,6.19,1.11,1.11,12.18,12.18h-7.85l-.02-.02-11.61-11.89-.27-.27-1.11-1.11-7.57-7.57h0Z"/>
  <polygon class="cls-1" points="59.86 72.31 44.12 88.05 19.17 88.05 47.39 59.84 52.3 64.75 35.93 81.11 41.25 81.11 54.96 67.41 59.86 72.31"/>
  <path class="cls-1" d="M81.45,56.05l-32,32h9.82l6.71-6.71v6.71h6.94v-8.01l8.01,8.01h1.04l15.74-15.74-16.26-16.26Zm0,22.71l-6.45-6.44,6.45-6.44,6.44,6.44-6.44,6.44Z"/>
  <rect class="cls-1" x="4.04" y="90.1" width="119.93" height="4.55"/>
</svg>